<svg id="地图" xmlns="http://www.w3.org/2000/svg" viewBox="0 0 1084 782"><defs><style>.cls-1{fill:none;stroke:#000;stroke-miterlimit:10;}</style></defs><path class="cls-1" d= transform="translate(-3.5 -3.5)"/><path class="cls-1" d="M118.76,737.87a24.16,24.16,0,0,1-4.71-7.56c-.73-1.92-1.06-4,.7-5.54s4.06-1.3,6.1-.29c6,3,5.64,10.53-.71,14.7Z" transform="translate(-3.5 -3.5)"/><path class="cls-1" d="M146.27,686.72c0,6.36-3,10.65-7.4,10.51-4.17-.13-5.78-2.93-6-6.54-.24-3.77,5.51-8.85,9.47-8.64C145.23,682.21,146.31,684,146.27,686.72Z" transform="translate(-3.5 -3.5)"/></g>


<path class="cls-1" d="M449,601c-3.14-3.88-6-7.79-2.17-12.87,1.12-1.49.28-2.12-1.13-3-5-3-5.61-9.37-1-12.63,5-3.59,10.77-5.88,16.54-8,3.16-1.14,3.71,1.39,3.78,3.63.13,4.11-2.14,7.36-4.75,10.12a11.85,11.85,0,0,0-3.44,10.84A26,26,0,0,1,456,601Z" transform="translate(-3.5 -3.5)"/>
<path class="cls-1" d="M546,529c-2.24,1.71-4.36,3.6-6.74,5.09a7.55,7.55,0,0,1-9.28-.37c-2.57-2-2.79-4.9-1.89-7.72,1.1-3.45,3.1-6.73,7-6.82S543,519.93,546,523Z" transform="translate(-3.5 -3.5)"/>
<path class="cls-1" d="M429,575.74a7.3,7.3,0,0,1,7.17,3.62c1.6,2.68.54,5.12-.92,7.43a21.67,21.67,0,0,1-11.63,8.83,7.24,7.24,0,0,1-8.79-2.83c-2-2.95,0-5.37,1.71-7.57,2-2.45,4.11-4.75,6.25-7.06A7.51,7.51,0,0,1,429,575.74Z" transform="translate(-3.5 -3.5)"/>
<path class="cls-1" d="M515.57,546.63c-.09-4.79,2.9-8.93,6.11-9,3.54,0,7.42,3.21,7.34,6.15-.08,3.13-5.72,10.1-8.25,9.75C516.58,553,516.21,549.36,515.57,546.63Z" transform="translate(-3.5 -3.5)"/>
<circle cx="455.5" cy="223" r="6"/>
<circle cx="538.78" cy="97.5" r="6"/>
<circle cx="575.5" cy="378" r="6"/>
<circle cx="705.5" cy="232.5" r="6"/>
<circle cx="525.52" cy="320.5" r="6"/>
<circle cx="869.99" cy="209" r="6"/>
<circle cx="650.5" cy="340.5" r="6"/>
<circle cx="622.58" cy="436.5" r="6"/>
<circle cx="529.3" cy="443.5" r="6"/>
<circle cx="553.04" cy="487.24" r="6"/>
<circle cx="787.49" cy="384" r="6"/>
<circle cx="878.22" cy="301.5" r="6"/>
<circle cx="961.48" cy="316.5" r="6"/>
<circle cx="989.5" cy="251.5" r="6"/>
<circle cx="447.43" cy="390" r="6"/>
<circle cx="328.04" cy="301.5" r="6"/>
<circle cx="289.78" cy="396" r="6"/>
<circle cx="394.35" cy="489.16" r="6"/>
<circle cx="148.77" cy="524" r="6"/>
<circle cx="271.78" cy="530" r="6"/>
<circle cx="57.11" cy="619.5" r="6"/>
</g>

<g id="佛山_图像" data-name="佛山 图像">
<path class="cls-1" d="M551,418v5c-3-.17-5.27-3-8.47-2.54-11.32,1.74-22.6,3.67-33.5,7.38-2.2.75-3.6,1.62-3,4.17h-6c1.54-5.57-1.25-9.6-4.78-13.34-2.17-2.3-4.43-4.52-6.6-6.82-6.16-6.55-13.53-6.66-21.61-4.51-6.46,1.72-12.12,6.86-18.67,6.58-9.71-.42-15.32,3.77-19.08,11.94-1,2.11-2.17,4.11-3.26,6.16h-8c-.46-.69-1-1.35-1.36-2.07-3.42-6-3.49-6.18-9.53-2.55-4.33,2.6-8.1,2.35-11.59-1.24-1.26-1.3-2.35-2.76-3.52-4.14v-3c2.31-2.59,2.64-7.22,7.39-7.29a17.54,17.54,0,0,0,11.3-4.67c5.06-4.31,9.87-8.92,14.95-13.21,6.42-5.42,14.6-7.91,21.47-12.64,3-2,5.06-4.66,5.34-8,.57-7,.87-14-.35-20.9-.52-3-.79-5.68.59-8.21,2-3.7,1.75-7.24.35-11-1-2.64-1.48-5.46-2.49-8.08a10.47,10.47,0,0,1,.75-9.54A43.38,43.38,0,0,0,457,297h6c1.74,1.55,3.42,3.15,5.21,4.63,7.74,6.36,15.63,12.57,17.63,23.31.41,2.21.48,4.63,2.45,6.6a7.38,7.38,0,0,0,1.38-1.32c5-8.4,10.87-5.66,15.9.24,5.64,6.61,6.89,14.67,6.3,23a16,16,0,0,0,2.49,10.32c5.41,8.58,10.72,17.25,10.12,28.09-.14,2.5,1.34,4.86,2.89,6.79C533.87,406.72,541.25,413.82,551,418Z" transform="translate(-3.5 -3.5)"/></g>

<g id="肇庆_图像" data-name="肇庆 图像">
<path class="cls-1" d="M259,333v-8c1.72-1.29,2.18-3.35,2.93-5.14,3.71-8.81,8.9-16.73,14.41-24.48a25.39,25.39,0,0,1,12-9.35c11.08-4.13,11.09-4.12,10.68-15.82-.28-8,4.51-12.58,12.36-11.93a22,22,0,0,0,22.6-29.8,104.72,104.72,0,0,1-5.21-16.14c-1.88-9,3.14-15.78,12.2-15.49,10.2.32,20.19-1.59,30.32-1.89,2.43-.07,4.09-.83,4.65-3.51A49.48,49.48,0,0,1,383,174h10c10.7,6,15.08,15.36,14.84,27.38-.07,3.6,1.83,6.54,4.5,9.14,5.24,5.12,8.34,11.28,7.06,18.85-.51,3,1,3.26,3.29,3.44,8.52.66,13.38,5.87,16.42,13.37,2,4.91,2.15,10,2.25,15.21.1,5.56.59,11.9,4.8,15.3,5.7,4.61,9.08,10.49,12.84,16.31v7c-1.91,5.14-3.42,10.47-5.85,15.35a12.25,12.25,0,0,0-.49,10.92c2.56,6.36,4.79,12.8,1.31,19.67a7.13,7.13,0,0,0-.4,4.38c1,4.62.24,9.33.85,13.92,1.49,11.09-3.45,18.07-13.34,22.37a77.16,77.16,0,0,0-24.66,17.52c-4.64,4.78-9.84,9.07-17.14,9.21A3.52,3.52,0,0,0,396,416h-1c-.16-2.22-1.75-3.47-3.2-4.85-8.21-7.8-13.38-16.83-12.19-28.7a38.71,38.71,0,0,0-.51-9.42c-1.62-10.91-1.67-10.76-13-9.31-10.57,1.35-21.11,1.26-30.22-5.24a27.65,27.65,0,0,0-17.27-5.12c-9.47.14-18.94.15-28.15-2.76-5.94-1.88-9.95-5.26-10.44-11.82-.27-3.56-2.31-5.3-5.66-5.89A44.16,44.16,0,0,0,259,333Z" transform="translate(-3.5 -3.5)"/></g>

<g id="中山_图像" data-name="中山 图像">
<path class="cls-1" d="M583,450v4c-10.35,3.25-20,8.1-29.51,13.19-2.82,1.51-6,3.52-5.9,6.91.3,9-2.09,16.48-9.59,21.91h-4c-4.09-8.9-8.29-17.73-15.44-24.71a7.67,7.67,0,0,1-2.6-5.7c0-5.9-2.5-10.85-5.37-15.77-3.49-6-7.89-11.48-9.89-18.27,4-2.59,7.58-5.78,12.61-6.79,12-2.41,23.53-7.35,36.54-4.6-1.59-2-4-2.11-4.86-4.15h5c6.86,2.48,14.14,3.52,20.94,6.32,5.78,2.38,9.26,6.26,10.11,12.43C581.74,439.83,582.35,444.92,583,450Z" transform="translate(-3.5 -3.5)"/></g>

<g id="东莞_图像" data-name="东莞 图像">
<path class="cls-1" d="M603,505h-6a26.25,26.25,0,0,0-2.69-8.5c-8.78-18.9-16.86-38-15.47-59.54.18-2.85-1.07-5.48-2.18-8.1-2.9-6.8-8.39-11.9-11.73-18.46-3.52-6.92-7.13-13.92-12.93-19.39,0-11.5.07-23-.06-34.5,0-2.15.41-2.59,2.57-2.57,12.5.13,25,.06,37.5.06a101,101,0,0,0,25,3.81c9,.27,16.05,3.85,20.81,11.43,1.64,2.61,2.87,4.51,6.46,3.6,2.09-.53,3.69,1.28,4.73,3,1.77,3,3.37,6.08,5,9.13v24c-.68,1.52-1.44,3-2,4.55-3,7.77-6.28,8.53-12.36,2.79-1.69-1.6-3.26-3.33-4.87-5a8.88,8.88,0,0,0-5.09-2.95c-7.35-1.11-14.07-4-20.48-7.57-3.07-1.71-6.26-2.14-9-.32a151.87,151.87,0,0,0-14.69,11c-2.22,1.88-2.85,4.46,1.39,5.1a3.57,3.57,0,0,1,3.43,3.61c.36,5.71,3.62,9.89,7.34,13.79,5.32,5.6,9.49,12,13.44,18.59,1.65,2.73,1.62,5.17-2.05,6.17-2.84.78-4,3-4.51,5.46C601.66,477.73,601.71,491.35,603,505Z" transform="translate(-3.5 -3.5)"/></g>

<g id="深圳_图像" data-name="深圳 图像">
<path class="cls-1" d="M598,398h12a39.73,39.73,0,0,0,16.4,6.88,18.7,18.7,0,0,1,11.47,6.27c7.74,8.67,9.14,8.29,12.43-2.66,1-3.28,2.13-6.29,5.94-7.31,9.76-2.62,21.47,2.46,24.66,11.86,1.94,5.7,4.86,8,10.58,8,3,0,5.25,1.12,4.31,4.91-.65,2.62,1,3.65,3.24,3.94,1.48.19,3,.14,4.48.27s3.2.1,3.86,1.72-.21,3.34-1.48,4.45a46.43,46.43,0,0,1-5.24,3.76c-1.76,1.15-4.46,1.91-3.7,4.57s3.49,2.08,5.58,2.22,4.31.12,6.46.16c0,5-.1,10,.05,15,.05,1.74-.31,2.11-2.06,2.06-5.33-.15-10.67-.05-16-.05-1.89-3.47-2-7.33-2.45-11.11-.51-4.73-3.17-7.24-7.74-7.56-2.79-.2-5.87-.54-8.39.37-9.23,3.32-18.71,5.54-28.23,7.84-8.28,2-16.35,4.33-25,2.7a13.22,13.22,0,0,0-6.39.29c-2.41.81-3-.16-4.06-2-4.34-7.47-8.89-14.8-15.06-21-2.6-2.61-5-5.57-5.39-9.34-.43-4.09-2.64-5.38-6.32-5.21v-9C588,406.89,593.12,402.61,598,398Z" transform="translate(-3.5 -3.5)"/></g>

<g id="清远_图像" data-name="清远 图像">
<path class="cls-1" d="M387,50h28c7.89,4.31,15.51,9.24,23.75,12.72,6.45,2.73,9.34,7.07,11.37,13.33,5.76,17.85,2.39,19.09,25.83,18.81.33,0,.67,0,1,0,2.4-.21,4.53-.63,5.54-3.38,1.11-3,3-2,4.55-.35,3.23,3.35,3.34,6.77.3,10.65a80.38,80.38,0,0,0-8,11.48c-6.31,11.86-8.63,23.58-.29,35.77,6.27,9.17,7.59,9.81,18.35,6.82,5.58-1.55,11.9-2.92,16.69,1.42a16.21,16.21,0,0,0,12.7,4.43c6-.37,12-.56,17.91-1.4,19-2.7,35.33.63,47.18,17.51,4.81,6.85,9,14,13.1,21.21v7c-3.1,2.16-6,4.83-6.27,8.63-.36,4.93-1.9,9.36-3.66,13.85-.71,1.81-1.51,4.2-.9,5.82,3.73,9.9-1.84,15.31-8.69,21-7.64,6.34-12.25,15.28-17.44,23.61-2.13,3.41-4.41,4.45-8.25,2.63-5-2.37-10.46-3.31-15.9-4.08-11.07-1.55-22.61,4.47-25.37,15-2.87,10.91-10.54,13.77-19.88,14.89-5.5.66-10.47,1.94-14.09,6.43-2.06,2.55-3.68,1.8-5.62-.33a109.38,109.38,0,0,0-15.7-13.88,27,27,0,0,1-7.71-9.4c-2-3.78-3.91-7.82-7.93-10.05-3.14-1.74-4.61-4.62-5.81-7.8-1.87-4.95-1.88-10.09-2-15.26-.33-14.06-5.92-20.61-19.65-22.72-3.11-.48-2.74-2.26-2.42-4.29,1.22-7.92-1.37-14.47-7.31-19.67-3-2.66-3.87-6.09-4.2-9.8-.22-2.49-.18-5-.57-7.46C404.31,184.84,400,179,392,176c-5.6-2.07-8.91-.81-11.16,4.79a63.58,63.58,0,0,0-3.47,11.94c-.53,2.8-1.58,4.13-4.43,4.23-10.64.37-21.28.82-31.92,1.21-1.12,0-2.53.23-3-1.2s.87-2.05,1.77-2.7c3.53-2.5,7.12-4.91,10.67-7.39,5.81-4.06,6.25-5.27,2.74-11.4-4.22-7.37-8.9-14.46-13.16-21.81-3.86-6.67-3.35-10.91,1.6-16.9,1.8-2.18,3.75-4.24,5.58-6.4s2.62-4.23.7-6.74c-1.77-2.31-.41-4,1.23-5.63,3.39-3.34,7.51-5.43,11.87-7.2,6.51-2.65,11.9-10.46,9.93-14.91-2.79-6.3-3.24-12.85-3.25-19.53C367.73,60.18,371.76,54.68,387,50Z" transform="translate(-3.5 -3.5)"/></g>

<g id="广州_图像" data-name="广州 图像">
<path class="cls-1" d="M607,240c7.5,0,15,.1,22.5-.07,2.16,0,2.67.41,2.57,2.57-.21,4.49-.06,9-.06,13.5-4.5,6.92-11.77,10.67-18,15.57-13.44,10.59-13.69,12.84-2.45,25.57,4.82,5.46,10.19,10.55,13.1,17.47,3.05,7.24,1,11.18-6.68,12.31-2.37.35-4.93.63-5.48,3.42-.76,3.88-2.5,7.55-2.17,11.7a49.75,49.75,0,0,1-1.23,13.86c-.64,3.18-2.34,4.65-5.64,4-5.05-1-10.54-1.06-15.07-3.17-8.72-4.06-16.14-1.2-23.75,2.42-5.11,2.43-9.53,4.65-10.25,11.81-.85,8.49-2.05,16.38,4.22,23.44a31.64,31.64,0,0,1,4.71,7.62c4.32,9.22,11.57,16.65,15.68,26h-1c-7.46-4.64-15.81-6.92-24.27-8.72-13.55-2.89-22.17-12-29.31-22.94a10.28,10.28,0,0,1-1.49-5.72c.31-7.18-2.33-13.46-5.92-19.27-4.62-7.46-8.52-14.91-7.14-24.12.28-1.9-.33-4-.74-5.92a20.61,20.61,0,0,0-7.89-12.89c-4-2.95-6.93-2.35-9.7,1.71-.75,1.09-1.33,2.3-2,3.47-.47.85-.65,2.13-1.82,2.13-1.61,0-1.5-1.54-1.72-2.59-1.17-5.54-2.4-11.05-5-16.14v-3c4.71-6,11-8.76,18.45-9.48a39.14,39.14,0,0,0,9.09-2.53c3.14-1.12,5-3.33,6-6.71,4.69-15.07,15.46-22,31.16-20.24a53,53,0,0,1,11.63,2.73c7.23,2.51,7.19,2.43,11.27-4.34,5.87-9.74,12.6-18.73,21.61-25.9C595.28,243.53,601.85,243.43,607,240Z" transform="translate(-3.5 -3.5)"/></g>

<g id="惠州_图像" data-name="惠州 图像">
<path class="cls-1" d="M600,286v-5c2.64-3,5-6.16,8.23-8.59,5.42-4.09,10.83-8.2,16.13-12.44,7-5.62,7.12-14.37.29-19.88A7.65,7.65,0,0,1,622,236h39c1.82,1.92,3.67,3.82,5.46,5.77a12.8,12.8,0,0,1,3.66,10.49c-1.15,10.07,3.28,17.32,12.71,20.88,3.11,1.18,6.24,2.34,9.23,3.77,3.64,1.75,7.26,4,8.69,7.86,1.19,3.23,3,3.94,6,3.63,5-.52,7.51,1.93,8.63,6.86,1.24,5.49,0,10.52-1.47,15.62-.47,1.6-1.52,3.17,1.16,3.85,7.24,1.85,10.85,7.25,13,13.84a32.81,32.81,0,0,0,8.7,14.33c.95.88,2.29,2.94,3.4.43,1.66-3.76,4.33-7.08,4.68-11.46.57-7,2.4-8.79,9.28-10.2,3.2-.66,6.67-.05,9.58-2.23,4.55-3.41,10-3.18,15.27-3.26,5.5-.08,11,2.64,16.53-.37,1.12-.61,2.36.12,3.19.93,5.56,5.48,13.14,7.77,19.31,12.28v10c-1.28,1.52-2.68,2.95-3.83,4.56-9.73,13.71-21.34,25.11-37.5,31.1-5.3,2-10.56,4.09-15.71,6.43-9.36,4.24-11.63,11.45-6.54,20.38a82.94,82.94,0,0,0,11,14.84c4.46,4.88,3.2,10-3.3,11.88-2.55.73-3.58,2.25-5.13,4C751.83,438,752.2,445,752,452h-7c-3.5-7.48-3.5-7.48-11.38-5.15-.8.24-1.58.54-2.38.75-6.57,1.67-10-.8-9.29-7.41,1-9,1-18.53,9.64-24.63.46-.33.65-1,.91-1.49-.69-.87-1.47-.9-2-.54-5.65,3.94-12.51,4.19-18.75,6.33-5.25,1.8-11,2.81-15.15,7.14a2.12,2.12,0,0,1-3.46-.34c-.81-1.11-1.62-2.33-3.06-2.3-7.23.14-9.79-4.46-11.9-10.48-2.9-8.26-14.74-13.27-22.24-8.88-5.84,3.42-4.17-.5-4.13-3.08.09-7.54-.08-15-3.81-21.86-1.3-2.4-2.75-4.22-5.76-3.71-3.41.57-5.08-1.07-6.44-4.06-2.72-5.95-7.17-9.7-14-10.48-7.26-.82-14.62-.89-21.74-2.8v-1c2.9-2,6.69-2.92,6.7-7.69s.8-9.59,1.06-14.39c.46-8.27,2.37-11,10.34-12.87,3.24-.77,3.88-2.56,3.75-5.36-.21-4.32-2.91-7.31-5.37-10.44C610.95,300.19,604.1,294.16,600,286Z" transform="translate(-3.5 -3.5)"/></g>

<g id="河源_图像" data-name="河源 图像">
<path class="cls-1" d="M742,349h-3a51.58,51.58,0,0,1-14.84-22.08c-1.81-5.3-5.27-9.71-12.05-9.3-3.53.22-3.36-1.86-2.23-4.22a30,30,0,0,0,3-14.51c-.28-6.15-1.65-7.62-7.82-7.48-3.18.07-5.49-.6-6.35-4.12-.9-3.73-3.88-5.74-7.09-7.25-3.61-1.69-7.3-3.23-11.05-4.56-8.39-3-12.62-9.73-13.43-17.7-1-10-1.44-20.18.53-30.27,1.42-7.31,3.92-10.68,11.1-12.14,6.29-1.28,11.32-4.67,16.2-8.43,2.13-1.64,4.42-3.71,2.58-6.7-2-3.16-4.91-2-7.55-.82a46.43,46.43,0,0,0-12.28,8.47c-3.93,3.57-7.8,3.64-12.27,1.07-4.77-2.74-7.77-7.18-11.43-11V184a26.56,26.56,0,0,1,12.58-9.45c7.25-2.82,9.95-6.7,9-14.44-.58-4.7-.16-6.8,5.26-5,1.66.54,3.92-.39,5.82-1a74.21,74.21,0,0,0,15.46-6.93c3.86-2.2,7.9-3.53,12.41-2.77,1.73.29,3.59.29,4.5-1.34,3.47-6.21,7.8-4.27,12.64-1.87,9.09,4.5,12.19,3.65,18.33-4.24a27.12,27.12,0,0,0,2.13-2.77c4-6.82,9.89-9,17.68-8.42,6.73.54,13.63,1.21,20.27-1.32,7.61-2.91,15.29-5.65,22.93-8.46h16c9.12,8.84,9.33,11.26,1.43,20.93-2,2.39-3,4.94-1.76,7.79,4.49,10.18,7.27,21,11.34,31.28v16c-2.88,1.66-5.77,3.31-8.64,5-7.53,4.39-11.41,11.23-11.92,19.67-.44,7.36-2.74,14-5.85,20.48-2.15,4.51-4.6,8.9-5.91,13.75s.16,8.79,4.15,9.84c4.57,1.21,6.42,4.23,7.52,8.36,1.64,6.15,2.26,12.43,2.89,18.73.82,8.22.27,16.68,4.37,24.35,1.42,2.66.95,5.53-.23,8.23q-2,4.58-4.1,9.11c-2.54,5.44-2.52,5.39-6.67,1.56a18.29,18.29,0,0,0-3.72-2.49c-4.68-2.54-9.62-4.63-13.49-8.45a2.79,2.79,0,0,0-3.19-.86c-3.93,1.83-7.84.58-11.78.17-6-.61-12.18-1.35-17.46,2.19a19.44,19.44,0,0,1-8.25,3.11c-8.84,1.33-8.8,1.33-10.9,10.24a17.57,17.57,0,0,1-1.91,4.58A20.82,20.82,0,0,0,742,349Z" transform="translate(-3.5 -3.5)"/></g>

<g id="韶关_图像" data-name="韶关 图像">
<path class="cls-1" d="M501,4h22a122.09,122.09,0,0,1,13.8,13,16.8,16.8,0,0,0,9.36,5.18c4.53.88,9.8-.57,13.52,2.63,5.69,4.89,11.76,4.5,18.3,3,3.38-.8,6.83-1.38,10.27-1.88a3.56,3.56,0,0,0,3.13-2.66c2.82-7.23,8.85-10.77,15.89-12.27,11.76-2.5,21.23,8,17.7,19.15-.5,1.58-.91,3.2-1.28,4.82-.63,2.77.53,3.44,2.95,2.3a8.32,8.32,0,0,0,2.95-1.81c5.24-6.4,12.13-7.34,19.76-6.48,3.12.35,6.33-.15,9.48.09,7.25.55,13.21-2,18.8-6.49,10.77-8.6,17-8.61,28.35-.92,5.63,3.83,11.26,7.72,18,9.42v7c-6.44,4.91-7.46,8-4.86,14.71s1.53,10-4.89,14.07c-4.51,2.84-9.55,4.62-14.48,6.63-7.59,3.1-16.25,4.16-21.82,11.34-2.56,3.3-3.28,6.12-.69,9.86,4,5.8,3.51,8.81-2,13.24a32.31,32.31,0,0,0-9,10.54c-2.72,5.46-7.16,8.49-12.84,10.28-1.85.58-5.15.37-5.1,3s3.21,3,5.22,4a6.11,6.11,0,0,0,1.86.7c12.07,1.72,15.44,13.19,22.66,20.32.91.9,1,2.79,1.15,4.26.67,7.58-3.55,13.8-10.7,16.5a31.74,31.74,0,0,0-7.41,4.05c-4.5,3.29-6,8-4.17,12.74a21.23,21.23,0,0,0,8.2,10.43c4.28,2.84,8.29,3.1,12.16-.77a37.9,37.9,0,0,1,13-8.3c3.5-1.38,7.29-1.71,9.88,2,2.16,3.12,1.46,8.25-1.8,10.87-6,4.8-12,9.62-19.93,10.83-3.81.58-6.08,2.66-6.7,6.86-1.41,9.55-2.9,19.08-2.74,28.77h-2c1-9.11-3.75-14.82-11.73-17.48-8.34-2.77-17.16-1.2-25.79-.93-.78,0-1.79.4-1.78,1.4a2.15,2.15,0,0,0,1.12,1.43c1.25.65,3.31.64,2.61,2.83-.52,1.62-2.25,2-3.72,2.1-6.48.62-12.75,2.28-19.11,3.5-3.38.65-7,.1-10.47.17-2.61,0-3.74-1.28-4.46-3.72-2.1-7.15-2.57-14.08,1.48-20.76a10,10,0,0,0,1.55-5.71,12.5,12.5,0,0,1,3.37-9.15c3.34-3.74,3.39-7.68,1.49-12-4.13-9.45-10.29-17.42-17.32-24.88-8.3-8.82-18.61-11-30.08-10-9.45.77-18.91,1.56-28.38,2.09-3.66.2-7.64,0-10.16-3.16-3.12-3.87-7-4.44-11.57-4.4-3.82,0-7.21,1.27-10.57,2.66-4.28,1.76-7.75,1-10.7-2.56-13.56-16.23-13.74-24.63-6.66-40.11a71.15,71.15,0,0,1,8.12-13.17,27.9,27.9,0,0,0,2.59-3.67c2-3.73.29-6.44-4-6.62-3.45-.14-6-2.85-5-5.82,1.71-5,1-9.83.24-14.78s-1.59-10.09.22-15.29c1.69-4.87-.11-8.08-5-9.77-4.15-1.42-8.09-3.05-11.29-6.13V31c7.2-4.67,15.49-6.7,23.42-9.58C493.78,18.37,498.58,12.29,501,4Z" transform="translate(-3.5 -3.5)"/></g>

<g id="汕尾_图像" data-name="汕尾 图像">
<path class="cls-1" d="M944,381v6c-2.3-1-4.14-.16-5.93,1.3a83.58,83.58,0,0,0-14.13,14c-1.31,1.72-3.14,4.41-5.06,3.05-4.58-3.25-8.27-.18-12.46.34-10.26,1.27-18.94,5.8-27.41,11.2-4,2.53-5.89,1.9-6.65-2.67-.92-5.53-4.1-8.45-9.09-10a15.94,15.94,0,0,1-3.21-1.36c-3.47-2-4.48-4.73-2.18-8.33.56-.88,1.92-1.52,1-3.23a8.91,8.91,0,0,0-7,4c-3,4.84-6.68,9.09-10.24,13.47a14.56,14.56,0,0,0-3,6.79c-.31,1.78-.11,3.63,1.51,4.43,6,3,6.14,8.56,6.8,14H835c-3.37-4-7.35-4.25-12.15-2.67-9.36,3.08-15.79-1.52-16-11.16-.06-3.4-1.48-5.25-4.76-5.94a14.44,14.44,0,0,0-7,.18c-.22-2.23,3.06-4.73-.3-5.8-2.48-.79-5.7-1.85-7.39,1.78-1,2.18-2.91,2.54-5,2.57-2.83,0-5.66.08-8.49.07-2.65,0-4.61.6-4.38,3.91.13,1.91-.37,3.83-2.35,4.55-2.14.78-3.39-1-4.52-2.37-4.61-5.67-9.13-11.41-13.69-17.12V384c6.66-5.48,14.62-8.29,22.55-11.31,13.76-5.24,26-12.83,34.35-25.4,4.8-7.19,9.68-14.34,14.24-21.69,5.85-9.43,12.72-17.88,21.9-24.28,1.62-1.13,3.39-2.2,4-4.32h5c1.35,3.92,2.49,7.93,4.1,11.75,2.94,7,3.77,7.3,11.28,6.13a18.93,18.93,0,0,1,5.41-.35c2.78.39,5.51,2.67,4,5-2.92,4.58-.43,7.93.79,11.88,1.38,4.45-.72,8.17-4.23,8.38-1.4.08-3.32-.93-3.67,1.26s1.61,2.62,3.21,3.12c1.43.45,2.86.88,4.3,1.29,6.14,1.77,10.05,5.59,11.18,12,.68,3.93,1.58,7.82,2.11,11.76.45,3.4,2.35,5.15,5.36,6.49,6.88,3.06,14.15,4.81,21.36,6.73a9.88,9.88,0,0,0,9-1.81A11.85,11.85,0,0,1,936,378.31C938.69,379.05,941.33,380.09,944,381Z" transform="translate(-3.5 -3.5)"/></g>

<g id="揭阳_图像" data-name="揭阳 图像">
<path class="cls-1" d="M847,300v-3c11.19,0,18.16-6,22.62-15.71a2.92,2.92,0,0,1,.29-.41c3.37-4.86,7.84-7.06,13.92-7.14,9.32-.11,18.57.64,27.8,1.44a12.55,12.55,0,0,0,10.68-4C928.69,265,934.5,258.07,942,253h11c2.63,6.91,7.74,11.37,14.16,14.7a14.66,14.66,0,0,1,7.82,9.9c2.39,10.43,8.16,18,18,22.4v5c-2.14,1.28-4.21,2.7-6.44,3.8-7.09,3.5-8.69,3.23-13.42-3-5.74-7.5-13.73-8-22.05-7.48-5,.29-7.3,2.86-7.15,8.13.26,9.15.08,18.3,0,27.46,0,8.86.15,8.38,8.23,12,10.59,4.72,20.52,6.54,30-2.06,1.15-1,3.17-2.18,4.46-.53,1.6,2-1,2.75-2,3.79-4,4.1-7.1,7.9-3.43,14.33,3,5.16.85,9.79-4.1,13-.68.44-1.58,1-1.78,1.64-1.44,4.73-5.28,7.56-8.42,10.94H946a39,39,0,0,1-4.78-2.61c-5.82-4.28-10.88-4.61-16.9-.8-1.86,1.18-3.65,2.27-6,1.83-9-1.66-17.89-3.82-26.19-7.87-3.91-1.9-6.13-4.71-6.27-9.32-.1-3.46-1.1-6.88-1.6-10.33-.83-5.66-4-8.92-9.66-9.87-2.46-.42-5-.92-7-2.51a5.63,5.63,0,0,1-2.41-5.66,3.82,3.82,0,0,1,3-3c6.58-2,7-3,3.61-9-1-1.82-2-3.5-.66-5.54.84-1.31,2.77-2.46,1.17-4.27-1.24-1.41-3.1-.95-4.73-.75-10.35,1.27-13.24-.55-16.8-10.55C849.95,304.29,849.61,301.5,847,300Z" transform="translate(-3.5 -3.5)"/></g>

<g id="梅州_图像" data-name="梅州 图像">
<path class="cls-1" d="M1024,179v7c-2.75,5.6-6.13,10.83-11.29,14.41-7.18,5-12.12,11.7-16.5,19.09-4.71,7.93-10.18,15.37-18.74,19.59-4.6,2.27-7.39,5.41-7.88,10.61-.3,3.2-1.9,6-5.1,6.77-4.35,1-8.93,1.73-12.9-1.45-2.77-2.23-5.44-1.87-8.28-.11a44.8,44.8,0,0,0-8.2,6.5c-3.89,3.88-7.73,7.82-11.68,11.64-3.62,3.49-7.55,5.27-13,4.45-7.54-1.14-15.32-.68-22.9-1.39-9.73-.9-15.66,3.44-19.55,11.41-3,6.23-6.72,11-14.45,10.74a4.77,4.77,0,0,0-1.86.66C839.62,304.19,831,313.16,824,324h-3c.33-3.55,3.2-7.07.94-10.6-3.73-5.82-3.28-12.35-4-18.74-1-8.07-.89-16.27-3.25-24.17-.87-2.91-2-5.06-5.36-5.8-1.87-.42-3.54-1.76-5.3-2.69q0-8,0-16c5.08-7.33,9.18-15.21,9.9-24.18,1-11.92,5.45-21.41,15.93-27.81,6.37-3.89,7.23-6.22,5.58-13.64A181.21,181.21,0,0,0,826,150.89c-3.66-8.92-3.05-12.27,4.11-18.79,2.52-2.29,4.37-2.67,4.83,1.49.19,1.7.36,3.43,2.19,4.17,6.48,2.63,12.88,5.51,19.51,7.67,5.73,1.87,7.31,0,5.6-5.8-2.41-8.17-4.81-16.27-2.39-25,1.42-5.12,4.74-9.12,7.13-13.65h26c8.81,3.44,17.85,5.16,27.34,4a32.37,32.37,0,0,1,7-.25c6.68.64,13.68,1.46,17.88,7.29a71.41,71.41,0,0,1,8.61,16.22c4,10.42,7.32,11.51,17.39,6.48,1.34-.67,2.64-1.42,4-2.07,6.43-3.1,12.67-6.63,19.58-8.68,2.9-.86,5.54-1.24,7.87,1.13s2.26,5.05,1.27,7.9-2.07,6-3.23,8.9c-.72,1.81-1,3.52.22,5.19C1008.73,157.64,1015.53,168.93,1024,179Z" transform="translate(-3.5 -3.5)"/></g>

<g id="汕头_图像" data-name="汕头 图像">
<path class="cls-1" d="M941,344V301c1.71-2.34,3.77-4.36,6.74-4.76,10.64-1.42,20.76-1,27.55,9.13,2.06,3.08,4.62,3.44,7.75,2.14,7.92-3.27,13.89-8.58,15.85-17.13,1.88-8.21,5-15.39,12.11-20.39h16a82.92,82.92,0,0,0,20.06,10.7c5.84,2.08,11.68,3.51,14,10.21a5.4,5.4,0,0,0,2.46,2.38A195.92,195.92,0,0,1,1087,309v5c-10.29-.33-20.59-.62-30.88-1-6.48-.23-13-.36-19.42-1-2.58-.24-6.48,0-6.89-3.53-.36-3.1,3.23-3.77,5.47-5,2-1.15,4.63-1.39,6.33-3.47-7.82-4.74-14.32-3.82-18.95,3.3-5.94,9.15-12.26,18-16.27,28.43-3,7.86-9.16,13.55-18.13,14.22-6.93.52-12.07,4.13-17.25,8h-6c-1.2-1.51-3-2-4.68-2.59A161.91,161.91,0,0,1,941,344Z" transform="translate(-3.5 -3.5)"/></g>

<g id="潮州_图像" data-name="潮州 图像">
<path class="cls-1" d="M994,303h-2c-10-5.06-17.09-12.58-19.77-23.68-1.2-5-4.35-8-8.6-10.38-3.92-2.2-7.66-4.73-10.19-8.62-1.26-1.94-3.22-4.23-2.15-6.26,1-1.86,3.65-.18,5.54-.08,7.87.41,8.49.13,10.27-7.27a12.43,12.43,0,0,1,7-8.68c9.26-4.29,15-11.82,20.07-20.21,3.43-5.69,6.68-11.76,12.26-15.6A44,44,0,0,0,1023,181h2c6.59,10,11.74,20.52,11.14,32.84a102.93,102.93,0,0,0,5.54,39.13c2.26,6.54,6.52,12.66,6.32,19.79-.16,5.72,2.17,9,7,11.24v2c-8.55-.93-15.6-5.46-22.87-9.49-14.73-8.16-25.59-3.76-30.06,12.14-.4,1.44-.76,2.9-1.14,4.35C999.84,297.18,997.81,300.71,994,303Z" transform="translate(-3.5 -3.5)"/></g>

<g id="珠海_图像" data-name="珠海 图像">
<path class="cls-1" d="M602,503c-.41.63,1,2.1-1,2-1.66-.07-3.33,0-5,0a36.29,36.29,0,0,0-13.71-7.81c-3.77-1.18-8.35-2.64-11.93-.93-5,2.38-10.06,5-14.36,8.74-6,0-12-.09-18,.05-1.74,0-2.14-.31-2.06-2.06.18-3.66.05-7.33.05-11,5-.88,8.28-3.49,8-9-.47-11.12,5.51-17.52,15.26-21.27a28.72,28.72,0,0,0,4.07-1.88c4.15-2.4,9.06-3.38,12.62-6.85h7c3.33,10.79,5.08,22.09,10,32.35C595.89,491.3,597.3,498,602,503Z" transform="translate(-3.5 -3.5)"/></g></svg>