<svg id="珠海地图_拷贝" data-name="珠海地图 拷贝" xmlns="http://www.w3.org/2000/svg" viewBox="0 0 905.59 783.41"><defs><style>.cls-1{fill:none;stroke:#000;stroke-miterlimit:10;}</style></defs><title>珠海</title><g id="形状_1_图像" data-name="形状 1 图像"><path class="cls-1" d="M866.59,714v2.31c-5.87,4.29-12.63,4.69-19.49,4.28-2.58-.15-3.86-.15-3.11,3.13,1.13,5-.35,6.62-5.6,7.34-3.73.51-4.54,2.13-2.07,5,3.71,4.34,7.94,8.06,14,8.75,1.74.2,3.35.66,3.86,2.6s-.4,3.52-1.86,4.73a14.12,14.12,0,0,1-6.3,2.72,38,38,0,0,1-11.87.15c-6-.62-7.49.7-8.14,6.78a8.92,8.92,0,0,0-.09,2.69c1.65,7.93-8.06,13.55-15.06,11.46a41.67,41.67,0,0,1-11.93-6.1c-3.38-2.36-7-3.59-11.23-2.7-7.54,1.59-9,.85-13.1-5.87-3.87-6.39-6.74-13.27-9.72-20.09-1.4-3.2-3.5-4.46-7-3.64-5.73,1.35-7.8.28-10.39-4.94a25.19,25.19,0,0,1-2.52-9.23c-.58-7.33,2.35-11.44,9.46-12.95,3.46-.73,5.2-2.48,5-6.06-.08-1.54,0-3.08-.06-4.62-.66-11.78,4.25-21.12,12.6-29a5.64,5.64,0,0,1,4.46-1.78c5.12.31,10.25.66,15.38.72,8.12.1,16.31,1.89,24.33-1.27,3.43-1.35,7.1-.77,10.55.58,4,1.56,6.32,4.66,7.73,8.58,1.17,3.25-1.94,4.41-3.17,6.48-.92,1.53-2.36,3-1.45,4.89s2.94,1.81,4.72,1.9c9.25.5,9.26.49,11.13,9.71.2,1,.32,2,.46,3,.92,6.41,1.1,6.4,7.56,7.41C858,711.76,862.81,710.8,866.59,714Z" transform="translate(-85.34 -2.38)"/></g><g id="形状_2_图像" data-name="形状 2 图像"><path class="cls-1" d="M691.7,624.67h-2.31c-6.45-3-10.61-8.47-14.69-13.88a811.78,811.78,0,0,1-75.64-120.52,178.56,178.56,0,0,1-11.79-28,33.12,33.12,0,0,1-1.93-10.56c.05-2.39.61-4.71,3.07-5.77s4.29.16,6,1.66,3.45,3.44,5.17,5.17c9,9.08,19.05,16.82,30.78,22.14,16.94,7.68,33.69,8.36,50.1-1.54a7.43,7.43,0,0,1,4.34-1.35c12.66.75,23.67-4,33.93-10.68,4-2.61,7.34-4.09,12.2-1.81,4.45,2.09,7.3,0,8.37-4.87.28-1.25.48-2.52.81-3.76.54-2,1.28-4,3.62-4.56s3.89,1,5.3,2.49a22.52,22.52,0,0,1,4.73,7.88,37.52,37.52,0,0,0,10.85,16.09c6.1,5.37,8.84,12.44,9.78,20.34,1.79,15.07-.38,30-2,44.88-.46,4.18.31,9-2.24,12.35-4.29,5.67-4.94,11.58-3.63,18.17.35,1.77.24,3.54-1.8,4.62-2.58,1.36-1.5,2.86.18,4.07a6.39,6.39,0,0,0,4.82.78c5-.67,9.38.89,13.54,3.38,3.38,2,4.54,5.15,3.89,8.91s-2.84,6.33-6.7,7a18.77,18.77,0,0,1-13.93-3c-2.33-1.51-3.25-3.83-1.47-6.29,2.54-3.54-.19-3.57-2.38-3.64a20.52,20.52,0,0,0-7.52,1.46c-2.43.87-5,1.94-7.49,1.48C740.21,586,734,588.56,727.85,592c-3.34,1.88-7,3.09-10.58,4.63a69,69,0,0,0-11,5.49c-5.29,3.53-5.81,5-3.77,11.15,1.44,4.33.3,7.26-3.86,9.12A66.64,66.64,0,0,1,691.7,624.67Z" transform="translate(-85.34 -2.38)"/></g><g id="形状_13_图像" data-name="形状 13 图像"><path class="cls-1" d="M736.44,385.26c-1.92,15.9-5.55,34.73-13,52.65-1.37,3.28-3.44,5.43-7.61,5.12-3.86-.29-7.05,2.08-10.22,4-5,3.1-9.67,6.79-15,9.46-2.84,1.43-5.67,2.17-8.87,1-2.81-1.07-5.59,0-8.26.88-4.52,1.44-8.94,3.23-13.48,4.57-3.82,1.13-5.32-.14-4.42-4,2.89-12.31,1.26-24.52-.5-36.71-2.27-15.76,6.51-26.56,22.61-27.16,3.38-.13,6.08-.82,8.63-3.22,4.09-3.86,9.24-6,14.61-7.47,5.06-1.38,8.06-4.34,9.37-9.57,1.94-7.73,10.08-13.82,18.22-14.38,2.07-.14,3,1,3.86,2.52C735.15,367.86,736.33,373.25,736.44,385.26Z" transform="translate(-85.34 -2.38)"/></g><g id="形状_4_图像" data-name="形状 4 图像"><path class="cls-1" d="M337.2,645.14c-.25-8.92,1.19-17.07,1.26-25.26.14-15.73-2.95-30.8-13-43.37-10-12.4-12-31.95.26-45.22,13.55-14.72,28.49-27.78,46.67-36.63,3.45-1.68,7.12-2.91,10.73-4.25,2.08-.77,4.51-1.33,6.4-.31,4,2.16,7.28.72,10.38-1.46,3.65-2.56,6.76-2.63,10.33.31a61.28,61.28,0,0,0,9.13,5.69c3.71,2.09,7.47,2,10.8-.76,5.57-4.56,10.87-9.43,14.88-15.47a8,8,0,0,1,12.4-1.33,16.62,16.62,0,0,1,4.7,11.1c.16,2.79,1.21,2.76,3,1.25,7-5.89,13.81-11.78,18.32-20a152.69,152.69,0,0,1,23.52-32.28c5.06-5.28,10.62-10.09,17.41-13.16a35.24,35.24,0,0,1,5.06-1.81c1.09-.3,2.61-.7,3.28.26,1,1.39-.91,1.78-1.54,2.58a10.08,10.08,0,0,0-2,6.1,38.93,38.93,0,0,0,4.44,19.68,15.7,15.7,0,0,0,10.58,8.64c17.51,4.68,26.45,15.27,24.58,37.28-.44,5.23-1.26,10.44-1.11,15.73.09,3.09.89,5.43,4.1,6.64,3.65,1.38,4.77,4.88,5.92,8.13,2.64,7.42,3.44,15.24,4.71,23,1.1,6.71,2,13.47,4.21,19.93,2.18,6.26,3.8,7.4,10.42,7.42,1.16,0,2.31,0,3.47,0,4.41.19,5.57,1.41,5.75,5.89A38.29,38.29,0,0,1,605,594.91a5.62,5.62,0,0,0,2.75,6.89c3.85,2.32,7.69,4.64,11.5,7a64.44,64.44,0,0,1,6.4,4.27c3.16,2.54,2.71,4.79-1.07,6.05a23,23,0,0,1-3.35.86,7.58,7.58,0,0,0-5.58,4.22c-3.24,5.77-6.81,7.24-13.17,5.39A30.59,30.59,0,0,1,589.23,622a129.4,129.4,0,0,0-21.91-17.52,59.16,59.16,0,0,0-8.14-4.34C548.3,595.48,543,596.9,536,606.3a119,119,0,0,0-14.69,24.77,12.47,12.47,0,0,0-.49,9.31c3,9,.35,13-8.92,14.51a23,23,0,0,0-3.37.78c-3.77,1.22-4.78,3.41-3.22,7.13a39.32,39.32,0,0,0,5.88,9c2,2.53,2,4.46-1,6.24a12.57,12.57,0,0,0-4.91,4.8c-1.13,2.15-.29,3.26,2,3.16,2.47-.1,4.67-1.33,7-2.06a12.35,12.35,0,0,1,15.3,8.68c.82,3.43-1.09,5.9-4.2,4.72-11.65-4.39-21.92.28-32.29,4.42-3.09,1.23-6,3-9,4.38-2.09.95-2.49,2.18-1.56,4.27a22.34,22.34,0,0,1,2.06,9.71c-.14,5.86-3.58,9-9.46,8.26-4.07-.5-8.08-1.4-12.23-1.31-2.55.06-4.34.69-5.4,3.33s-5.48,4-8.25,2.71c-1.42-.65-1.58-1.59-.66-2.74a7.64,7.64,0,0,1,4.22-2.53c3.23-.86,4.27-3.41,4.88-6.29.32-1.52-.19-2.66-1.83-2.72-3.7-.13-4.55-2.72-4.44-5.53.15-3.63-.63-6.22-4.51-7.26-1.52-.41-2.39-1.85-3.3-3.11-5-6.89-7-7.42-14.85-3.76a24.85,24.85,0,0,1-8.09,2.38c-3.08.3-5.45-.33-5.88-4.27-.34-3.07-.48-6.89-4.22-8s-5.81,1.88-8.2,4c-1.16,1-2.42,1.91-3.55,3-10.06,9.3-22.68,4.7-29.57-3.25-3.69-4.26-7.05-8.82-10.49-13.29-1.38-1.8-2.46-2.41-4.66-.78-3.24,2.4-6,1.82-8.92-1.08s-4.28-6.35-5.4-10.07A67.24,67.24,0,0,1,337.2,645.14Z" transform="translate(-85.34 -2.38)"/></g><g id="形状_5_图像" data-name="形状 5 图像"><path class="cls-1" d="M338.83,620.82c-.69,1.93-1.23,3.93-2.09,5.77a7.23,7.23,0,0,1-6.59,4.48c-5.79.36-9,3.06-10.49,8a5.52,5.52,0,0,0,.64,5.09,15,15,0,0,1,2.22,10c-.29,3.26-1.5,5.92-5.38,6.46-2.8.39-4.76,2.35-6.69,4.28-3.81,3.8-7.36,8-12.67,9.79-1.52.53-1.5,1.56-1.16,2.76a8.29,8.29,0,0,0,7,6.31,40.21,40.21,0,0,0,5,.31c4.75.23,5,.58,3.1,5a5.47,5.47,0,0,0,.59,5.82c1,1.31,2.19,2.51,3.28,3.77,1.43,1.66,3.21,3.35,2,5.75-1.3,2.61-3.87,2-6.15,1.8-1.4-.14-2.79-.42-4.19-.56-2.18-.22-3.79.22-3.81,3s-1.77,3.58-4.16,2.62c-3.09-1.24-6.15-2.59-9.11-4.12a8.19,8.19,0,0,0-9.06.54,62.47,62.47,0,0,0-15.28,14.52c-3.37,4.62-2.88,8.73,1.18,12.74,3,2.93,6.75,4.65,10.19,6.87,4.35,2.81,4.94,4.79,2.51,9.26a29.93,29.93,0,0,1-3.69,5.38c-6.64,7.6-14.91,8.7-23.38,3.2-1.29-.84-2.5-1.8-3.76-2.68-1-.72-1.84-2.32-3.15-1.87-1.6.56-.67,2.23-.63,3.4.09,2.59-2,3.71-3.35,5.36-.62.77-1.9,1.4-1.42,2.5.59,1.34,2.06.85,3.1.63,2.51-.52,5-1.26,7.44-1.92.74-.2,1.59-.54,2.15.16s.11,1.47-.2,2.18a8.3,8.3,0,0,1-5.7,4.81,21.83,21.83,0,0,0-13.8,10.29c-1.51,2.52-6.87,3.54-9.36,2.18a3.1,3.1,0,0,1-1.57-2.89c-.05-1.67,0-3.35-.17-5-.82-6.16-3.28-7.62-9.46-7-7.12.7-13.78-1-19.08-6.19-2.91-2.86-3.14-6.41-1.59-10,1.45-3.33,3.66-5.74,7.78-5.86a20.31,20.31,0,0,0,11.83-4.08,15.69,15.69,0,0,0,1.17-24.29c-5-4.61-10.08-9.13-13.28-15.35-2.26-4.38-2.49-8.65.16-12.79,2.41-3.78,2.46-7-.76-10.4s-3.07-6.93-1.07-11c3.69-7.47,1.81-15.78-4.45-21.24-4.42-3.86-8-2.91-9.74,2.59-2.2,6.84-6.09,8.81-12.67,6a34.47,34.47,0,0,1-15.57-13.32c-1-1.56-1.63-3.15-.39-5,2.28-3.4.77-6-2.29-7.64A12.81,12.81,0,0,1,147,625c-2.72-5.66-5.91-6.37-11-2.7-1.48,1.07-2.38.95-3.64-.18-3.62-3.26-7.3-6.47-11-9.64-2.21-1.89-3.65-3.89-3.87-7.1-.32-4.73-5.64-8.88-10.93-9.15-2.3-.12-4.63.09-6.93-.12-3.43-.32-4.45-2-2.68-4.9a16,16,0,0,0,2.47-10.09c-.52-8.55,11.5-14.85,20.29-10.55-.16-5.11,2.46-8.51,6.41-11.11a5.22,5.22,0,0,0,1.44-1.78c3.8-6.57,9.61-10.51,16.65-12.92,4.73-1.62,9.52-3.13,14.14-5,5.4-2.22,10.17-5.84,11.87-11.43,3.23-10.62,10.29-16.16,20.79-18,3.08-.55,4.81-1.83,4.48-5.37-.35-3.72,2.19-5.3,5.45-5.66,2.93-.32,5.89-.29,8.84-.35,3.22-.07,5.62-1.14,6.88-4.43s2.81-5.83,6.9-6.88c3.64-.93,5.16-5,5.72-8.57.88-5.62,4.31-8.73,9-11.08a79.88,79.88,0,0,1,14.4-5.37c5.29-1.47,9.85.41,14.39,2.63.78.38,1.77.88,1.57,2s-1.29,1.09-2.17,1.2l-13,1.61c-1,.12-2.24,0-2.61,1.17s.71,1.78,1.52,2.41c2,1.59,5.92,1.39,6,4.66.07,2.56-1.51,5.12-2.06,7.74-1.32,6.3-5.07,11.12-9.28,15.67-1.77,1.91-2,3.55-.82,6.13,2.08,4.51,4.63,7.84,9.92,8.37,1.84.18,3.22,1.47,4.45,2.85,2.9,3.26,5.9,6.43,8.75,9.73.9,1,2.91,2.19,1.42,3.77s-3.53,2.67-5.81.89c-4.45-3.48-9-6.81-13.35-10.43-2.22-1.85-3.55-1.57-5.84.18-6.77,5.21-10.47,12.51-14.54,19.64-1.49,2.62.31,4.29,1.76,5.68,1.81,1.72,2.51-.82,3.51-1.64a25.51,25.51,0,0,0,3-3.48c3.5-4.18,6.14-4.27,9.76-.1a29.12,29.12,0,0,1,4.4,6.29c5.46,11.41,13.71,18.14,27,17.77,11.24-.31,22,2.78,32.88,5.26a7.06,7.06,0,0,0,3.42.27c5.38-1.69,8.06,1.73,10.68,5.38A62.67,62.67,0,0,1,338,602.84c.23,1.13.54,2.23.82,3.35Z" transform="translate(-85.34 -2.38)"/></g><g id="形状_9_图像" data-name="形状 9 图像"><path class="cls-1" d="M877.82,163.75A25.32,25.32,0,0,1,863,161.21a5.52,5.52,0,0,1-3.12-3.75c-1.31-7.32-6.67-10.56-12.86-13-5.37-2.12-10.7-4.38-16.14-6.31a9.14,9.14,0,0,1-6-5.89c-2.08-5.6-2.5-5.83-8.52-5.14-3.63.42-5.91-.57-6.91-4.32a10.75,10.75,0,0,0-12.88-7.71c-3.2.8-5.52.92-6.34-3a2.44,2.44,0,0,0-1.9-1.77c-4.9-1.1-9.41-4.05-14.9-2.22-3.48,1.16-8.91-2.25-10.18-5.79-1.21-3.38-2.37-6.79-3.42-10.23-.76-2.48-2-2.95-4.3-1.74a79.4,79.4,0,0,0-9.3,5.42c-3.61,2.62-7.14,2.41-10.18-.3-5.11-4.56-8.86-5.7-14.44-1.93-7.86,5.3-13.49-.31-19.88-2.65a2.48,2.48,0,0,1-1.26-1.82c-.25-4.74-2.56-8.83-3.89-13.23-1.16-3.86.17-6,3.94-7.59,2.89-1.2,6-1.33,9-2,8.5-1.75,10.76-6.64,6.58-14.32-3.06-5.63-3.08-5.68,3-7.69,5.67-1.87,9.84-5.28,12.2-10.89,1.3-3.1,2.64-3.31,4.6-.65,4.74,6.44,10.48,8.69,18.1,5.33,1.44-.64,3.28-.5,4.93-.51q33.9,0,67.8,0c5.09,0,5.62.59,5.9,5.73.44,8.19.88,16.39,1.46,24.57.31,4.38-2.13,7-5.43,9a28.24,28.24,0,0,1-8.45,3.68c-2.64.61-2.55,1.95-1.45,3.91,2.4,4.27,4.81,4.79,8.61,1.75.1-.08.19-.17.3-.25,2.3-1.7,4.49-4.76,7.66-2.63s2.14,5.78,1.5,8.88a38.42,38.42,0,0,1-2.25,5.8A13.2,13.2,0,0,0,840,94.68c2.2-1.87,3.63-1.9,5.52.68A57.56,57.56,0,0,0,860.65,110c7.33,4.75,14.74,5.64,22.38.78a33.59,33.59,0,0,0,3-1.65c3-2.42,5.46-2.43,8.59.42,3.56,3.24,6.55,2.1,8.14-2.52,1-3,1.56-6.23,2.52-9.29,1.26-4,3.46-4.46,6.42-1.52,2.53,2.52,2.56,5.72,2.65,9,0,1.43-.65,3.41,1.26,4,1.53.49,2.81-.92,3.4-2.06,3.26-6.2,7.68-5,12.81-2.66,6.39,2.87,6.42,2.58,1.89,8.26-6.65,8.32-13.51,16.48-19.23,25.51-2.78,4.39-7,6.71-12,7.65-4.53.85-7.86-1.76-8.24-6.31,0-.26,0-.52,0-.77-.3-2.32,1-5.68-3.29-5.5a6,6,0,0,0-5.85,6.76,38.7,38.7,0,0,0,1.71,5.88c.4,1.39.75,2.89-.51,3.95s-2.08-.36-3.06-.81c-2.72-1.24-4.37.49-6,2.22a7.55,7.55,0,0,0-1.43,8.89C876.41,161.32,877.86,161.89,877.82,163.75Z" transform="translate(-85.34 -2.38)"/><path class="cls-1" d="M990.05,12.7c-4.89,3.28-5.48,5.28-2.92,10.16,1.7,3.23,3.07,6.4,2.8,10.2-.56,8.23-6.4,12.71-14.41,11-2.39-.51-5.22-2.43-7.2,0-1.75,2.15.26,4.67,1,6.89,1.27,3.8,2.42,7.56,2.06,11.64a10.66,10.66,0,0,1-2.83,6.58c-2.51,2.67-4.53,2.71-7.23.27-7.39-6.69-14.93-5-19,4.13C938.46,82.36,935,83.91,926,80.78c-7.9-2.76-8-2.77-7.78-11.33a26.26,26.26,0,0,0-2-10c-6.5-17.34-4.25-33.28,8.5-47.2,8.57-9.35,8.62-9.3,21.3-9.27,10.39,0,20.79.05,31.18-.06,2.69,0,4.7.61,6,3.15C984.67,8.83,987.19,10.68,990.05,12.7Z" transform="translate(-85.34 -2.38)"/></g><g id="组_1_图像" data-name="组 1 图像"><path class="cls-1" d="M877.37,310.33c-.91,1.54-1.87,3.06-2.74,4.63a10.54,10.54,0,0,1-7.91,5.51c-3.29.54-6.58,1.09-9.85,1.78-2.52.53-3.6,1.7-3.63,4.79a16.9,16.9,0,0,0,2.9,10.39c1.55,2.24.37,3.72-2.11,3.93a17.58,17.58,0,0,1-6.12-.21c-8.18-2.33-15.91-.06-23.27,2.77-9,3.44-17.31,2.24-24.46-3.1-6.86-5.13-13.77-5.33-21.44-3.9a36.82,36.82,0,0,1-7.28.47c-5.7-.09-7.47-1.63-8.18-7.38-.37-2.94-1.66-2.9-3.91-2-8.19,3.3-16.63,5.1-25.55,4.07a34.52,34.52,0,0,1-10.93-3.53c-7.2-3.44-14.16-3.13-21.53,0-7.57,3.17-15.17,6.26-22.74,9.44a37.58,37.58,0,0,1-7.75,2.24,16.64,16.64,0,0,1-19-12c-1-3.9,1.45-8.36,6-10.47a32.69,32.69,0,0,1,12.7-2.82,102.62,102.62,0,0,1,20.73,1c3.52.6,5.35-.82,6.67-3.66a20.87,20.87,0,0,0,1.73-4.27c.7-3.28,2.4-5.23,5.86-5.6,2.09-.22,3.06-1.53,3.09-3.7a22.76,22.76,0,0,1,.58-4.19c1.11-5.55.83-10-4.84-13.8-3.06-2-4.93-4.59-9-2.88-1.61.68-2.54-.91-3.22-2.14-6.12-11-13.74-21.07-18.31-32.92a68.79,68.79,0,0,0-8.65-15.86c-3.85-5.26-8.53-8.91-15.52-8.13-3.94.44-6-1.41-6.74-5.17a22.79,22.79,0,0,0-1.4-4.38c-1.9-4.51-.89-6.64,3.92-7.84a12.59,12.59,0,0,1,3.8-.45,8.18,8.18,0,0,0,8.48-4.8,5.55,5.55,0,0,1,4.83-3.18c4.45-.55,8.91-1.11,13.32-1.92,9.61-1.77,12.14-4.54,13.2-14.14a32.53,32.53,0,0,0-.17-7.68c-.34-2.66-.93-4.58-4.33-4.52-3,.05-3.59-3-4.79-5-1.47-2.44-2.63-4.5-6.22-3-2.44,1-5.47-1.65-5.66-4.74-.24-3.71-.08-7.44-.07-11.16,0-2.8,2.33-4,4.15-5.16,4.06-2.62,5.39-5.71,4.43-10.66s-1.46-9.6-4.48-13.68a2.37,2.37,0,0,1-.19-.33c-5.22-10.18-2.6-14.56,8.71-14.87,4.77-.13,9.85.9,13.75-3.26.92-1,2.3-.28,3.17.45,8,6.62,15.56,4.18,22.8-1.15,3.18-2.34,3.84-1.16,4,1.93a13.59,13.59,0,0,0,.35,1.89c2,9.65,9.06,14.8,18.8,13.2,4.23-.7,7.28,0,9.09,4.16,1.14,2.63,3.22,3.71,6.18,3.55s6.14-.22,9.21-.56c3.28-.36,5.26.86,5.56,4.64.53,6.66.79,6.93,7.46,6.65,4.4-.19,7.59.36,8.87,5.45.68,2.7,3.5,4.3,5.9,5.85,6.34,4.08,13.41,6.44,20.53,8.62,5.34,1.64,9.46,4,9,10.59-.17,2.23,1.55,3.41,3.43,4.17a19.56,19.56,0,0,0,8.26,1.58A13.27,13.27,0,0,1,847,167.48c3.49,3.21,7.23,6.17,10.64,9.45,6.15,5.92,4.49,16.76-3.11,20.83-5.82,3.11-12.23,3.83-18.66,3.94-8.19.13-14,3.47-16.94,11.29a11.37,11.37,0,0,1-1.57,3.08c-5.35,6.71-4.56,14.15-2.47,21.63,1.77,6.3,3.93,12.48,5.9,18.73.68,2.14.82,4-.92,6-2.07,2.45-1.63,5.81-1.72,8.88-.16,5.7-1,6.74-6.58,7.34-6.75.73-13.5,1.65-20.32,1.59-3.36,0-3.92.81-2.34,3.84,2.86,5.47,7.6,9,12.94,11.69,3.13,1.58,4.14,3.06,1.34,5.81a7.52,7.52,0,0,0-1.28,2.35,5.49,5.49,0,0,0,2.15,7.12c2.34,1.39,4.63-.81,6-2.88,2.6-4.07,2.28-8.68,1.34-13.08-.74-3.5.35-5.65,3.17-7.42s5.84-3.75,8.65-5.77c5-3.63,8.91-8.06,10.18-14.42a66.55,66.55,0,0,1,2.47-7.39c.92,2.6,1.39,4.14,2,5.62,1.78,4.23,4.74,5.71,9.25,4.73,2.88-.62,5.75-1.34,8.66-1.76,3.17-.46,5.94.4,7.4,3.55s1.82,6.38-.57,9.42c-4.12,5.25-4,6,1.79,9.33,5.21,3,10.07,6.17,13,11.63Z" transform="translate(-85.34 -2.38)"/><path class="cls-1" d="M565.91,382.72c17.88.19,33.51-6.46,48.27-15.86,8.44-5.38,16.62-11.17,25.41-16a37.37,37.37,0,0,1,19.56-5c13.24.56,25-4,36.49-9.47,15.89-7.59,27.29-4.14,35.86,11.37a60.82,60.82,0,0,1,4,9.58c1.08,3.12-.69,5-3.91,4.38-8.45-1.56-18.31,4.13-20.42,12.36-1.55,6-4.94,9.59-10.88,11.12a32.49,32.49,0,0,0-15,8.27c-2.62,2.58-6,1.8-9.1,2.29a33.47,33.47,0,0,0-8.91,2.25c-7.26,3.35-11.34,8.81-11.79,17-.4,7.39,1.1,14.56,1.93,21.81a55.88,55.88,0,0,1-.75,19.51c-.55,2.31-1,4.51-.06,7.1,1.34,3.89-4.15,9.89-8.84,10.35-4.29.42-8.07-1.06-11.72-3.07a80.5,80.5,0,0,1-20.19-15.91c-8-8.62-17.84-14.27-28-19.41-11.69-5.93-19.65-14.47-23.26-27.15-1.34-4.7-4-8.88-6.8-12.9a14.76,14.76,0,0,1-2.55-4.72c-1.44-5.6.51-8.14,6.07-7.94C562.83,382.76,564.37,382.72,565.91,382.72Z" transform="translate(-85.34 -2.38)"/></g><g id="形状_6_图像" data-name="形状 6 图像"><path class="cls-1" d="M536.84,412.8v3.08c-1.5,5.08-5.47,7.62-10,9.44-10.09,4.07-17.77,10.79-24,19.72C494.17,457.45,484.79,469.37,475,481a80.5,80.5,0,0,1-9,9.45c-1.82,1.56-3.15,1.56-3.59-1.27a19,19,0,0,0-2.07-6.18c-5-9.17-12.23-9.46-17.84-.68-2.57,4-5.26,7.93-9.08,10.88-6,4.63-12.55,5.08-19,1.19a59.52,59.52,0,0,1-7.23-5.1c-2.3-1.9-4.06-2.49-6.53,0s-6.08,4.42-9.09,2.91c-5.72-2.86-10.54-1-15.32,1.42a172.91,172.91,0,0,0-37.76,25.74,89.67,89.67,0,0,0-14.64,16.3c-7.07,10.34-9,20.88-1.44,31.87a9.3,9.3,0,0,1,.73,1.36c1.6,3.45.56,5.44-3.21,5.88a23.82,23.82,0,0,1-12.76-2.27c-6.13-2.81-12.61-3.22-19.11-3.75-4-.32-8-.3-11.89-.89-7-1.07-13.7-2.67-18-9.47-3.34-5.3-7.63-10-11.41-15-1.5-2-2.81-2.33-4.62-.39-2,2.16-4.15,4.2-6.29,6.23-.7.67-1.41,1.6-2.64,1-1.72-.89-3.66-6.61-2.54-8.23,4.29-6.22,7.74-13,13.24-18.4,4.3-4.19,4.3-4.29,9-.64,4,3.06,7.81,6.26,11.71,9.41,1.13.91,2.23,1.24,3.39,0,.8-.82,1.33-1.83.48-2.72-4.24-4.45-6.74-10.69-13.6-12.44a17.89,17.89,0,0,1-11.24-8.78c-1.19-2.06-1.27-4,.75-5.45,7.15-5.28,9.65-13.32,12.8-21,1.18-2.89,1-4.7-1.86-6.34-1.93-1.1-5.09-2.53-4.48-4.69.69-2.43,4.17-1.59,6.48-2,3.69-.65,7.57-.34,11.72-2.18a14.08,14.08,0,0,0-8.37-2.84c-8.75-.44-16.14,3.35-23.54,7.38-4.89,2.66-8.13,6.13-8.15,11.93,0,3.12-1.81,4.49-4.56,5.31-2.44.73-4.93,1.55-6,4.29-2.21,5.39-5.69,7.88-12,6.87s-9.79,1.87-10.69,8.08c-.38,2.61-1.83,3.4-4,3.76-6.27,1-11.12,4.41-15,9.29a50.44,50.44,0,0,0-7.37,12.59,6.74,6.74,0,0,1-5,4.32,81.79,81.79,0,0,0-13.06,4.62c-13.27,5.89-24.63,13.88-30.14,28.09-.88,2.27-1.87,2.09-3.7.91-4.66-3-7.46-2.53-11.07,1.6-1.18,1.35-2.22,2.83-3.41,4.18s-2.25,2.72-4.2,2-2.5-2.49-2.66-4.35c-.25-3,.71-5.87,1.72-8.62,2.35-6.38,2.77-12.7.35-19.18a27.68,27.68,0,0,1-1.34-6.77c-.35-3.34.35-6.51,3.17-8.65a22.76,22.76,0,0,0,7.12-9.89c10.19-25,9.56-49.26-4.49-72.76-2.76-4.62-5.48-9.3-7.78-14.17-5.13-10.84-9.57-21.93-8.86-34.3.41-7.11,2.62-13.65,8.88-17.5,4.5-2.76,7.9-6.44,11.5-10.07,5-5,10-10,15-14.92,3.38-3.28,7.13-5.72,12.21-5.69a40.94,40.94,0,0,0,8.35-1.34c25.67-5.3,39.68-21.45,41.25-47.52.45-7.57,1.1-15.07,3.83-22.28a58.46,58.46,0,0,0,3.93-22.6c-.2-7,1.34-13.78,6.83-18.59,4.7-4.12,6.62-9.26,7.65-15.07,2.62-14.75,2.43-29.65,2.22-44.53,0-3.18.14-6.38,2.12-8.81,5.48-6.74,4.69-13.83,2-21.25a27.27,27.27,0,0,0-2.17-4.48,11.48,11.48,0,0,1-1.84-7,2.61,2.61,0,0,1,2.23-2.63c5.3-1.45,6.65-4.09,5.49-10.22-1.75.63-2.62,3.58-4.76,2.56-2.45-1.16-1.4-3.87-1.42-5.94,0-3.85.38-7.73-1.21-11.39-5-11.56-13.5-20.32-25.22-23.88-6.61-2-8.91-5-9.69-10.78a8.9,8.9,0,0,0-.4-1.49c-1.93-6.07-.55-11.4,3.62-16.08,2.39-2.68,5-5.2,7.2-8a8.84,8.84,0,0,1,6.91-3.55c7.69-.37,13.73,3.77,16,11.15,2.08,6.61,3.62,13.39,6.39,19.77.64,1.47,1.45,4,3.19,3.29,4.46-1.72,8.3.18,12.36,1.11,1.15.26,2.54.36,2.8-1.19,1.07-6.42,5.78-10.45,9.81-14.86,2.05-2.24,3.79-4.47,4.3-7.52A5.3,5.3,0,0,1,246.76,56c2.79-2.69,6.82-1.44,7.85,2.8.87,3.55,2.34,4,5.39,2.43a45.28,45.28,0,0,1,6.87-2.47c3.15-1,5.69-.71,8.27,2,3.56,3.79,8.66,4.13,13.6,4.17,4.1,0,6.24-2.56,8.31-5.82,3.14-5,7.58-5.69,12.44-2.45a130,130,0,0,1,10.56,7.72c14.74,12.14,27.36,26.34,39.51,41a621.89,621.89,0,0,1,43.76,59.09c1.45,2.23,3.14,4.4,2.57,7.42-1.8,9.53-1.8,19.18-1.28,28.79.82,15.31,4.32,29.88,12.4,43.21,8.59,14.17,16,29,23.06,44,4,8.35,7.56,16.89,12.81,24.56,1.66,2.42,3.24,5,6.27,6,23.74,8.21,40.13,24.87,52.06,46.22,5.38,9.63,10.54,19.36,16.67,28.56A66,66,0,0,1,536.84,412.8Z" transform="translate(-85.34 -2.38)"/><circle cx="136.94" cy="348.47" r="4.83"/><circle cx="109.88" cy="608.96" r="4.83"/><circle cx="311.44" cy="589.46" r="4.83"/><circle cx="574.2" cy="527.91" r="4.83"/><circle cx="596.11" cy="424.29" r="4.83"/><circle cx="615.66" cy="211.14" r="4.83"/><circle cx="673.67" cy="69.06" r="4.83"/><circle cx="683.33" cy="714.88" r="4.83"/></g></svg>